

<svg version="1.1" xmlns="http://www.w3.org/2000/svg" xmlns:xlink="http://www.w3.org/1999/xlink" x="0px" y="0px" viewBox="0 0 1000 1000" enable-background="new 0 0 1000 1000" xml:space="preserve">
<g><g><path fill="white" d="M954.1,428.6l-97.1-16.2c-7.1-28.8-17.3-56.4-30.7-82.1l62.1-77.1c13.2-16.3,12.6-39.7-1.3-55.4l-38.6-43.5c-14-15.7-37.2-19-54.9-7.8l-83,52.2c-36.5-25.5-77.9-44.4-122.5-55.3l-16.2-97.6C568.5,25.2,550.6,10,529.6,10h-58.2c-21,0-38.9,15.2-42.2,35.8l-16.3,97.6c-36.9,9-71.5,23.6-103,42.8l-79-56.3c-17-12.2-40.4-10.3-55.2,4.6l-41.1,41.1c-14.8,14.8-16.7,38.2-4.5,55.2l56.5,79.1c-19,31.3-33.5,65.7-42.5,102.3l-98.2,16.4C25.2,432.1,10,449.9,10,470.9v58.1c0,21,15.2,38.9,35.8,42.3l98.2,16.4c7.4,30.1,18.2,58.8,32.5,85.5l-61.9,76.6c-13.2,16.3-12.6,39.7,1.3,55.4l38.6,43.5c14,15.7,37.2,19,54.9,7.8l84.2-52.9c35.6,24.4,75.9,42.3,119.2,52.9l16.3,97.6c3.3,20.7,21.3,35.8,42.2,35.8h58.2c21,0,38.9-15.2,42.3-35.8l16.3-97.6c36.4-8.9,70.6-23.2,101.9-42.1l82.2,58.7c17,12.2,40.4,10.3,55.2-4.6l41.1-41.1c14.8-14.8,16.8-38.2,4.5-55.2l-58.6-82.1c19.1-31.4,33.6-65.9,42.6-102.6l97.1-16.2c20.7-3.4,35.8-21.3,35.8-42.3v-58.1C990,449.9,974.8,432.1,954.1,428.6z M501.5,683.7c-101.5,0-183.7-82.3-183.7-183.7c0-101.5,82.3-183.7,183.7-183.7c101.4,0,183.7,82.3,183.7,183.7C685.3,601.4,603,683.7,501.5,683.7z"/></g><g></g><g></g><g></g><g></g><g></g><g></g><g></g><g></g><g></g><g></g><g></g><g></g><g></g><g></g><g></g></g>
</svg>
