<svg version="1.1" xmlns="http://www.w3.org/2000/svg" xmlns:xlink="http://www.w3.org/1999/xlink" x="0px" y="0px" viewBox="0 0 1000 1000" enable-background="new 0 0 1000 1000" xml:space="preserve">

<g><path fill="white" d="M633.2,500l329.1-329.1c36.8-36.8,36.8-96.5,0-133.3c-36.8-36.8-96.5-36.8-133.2,0L500,366.7L170.8,37.6c-36.8-36.8-96.5-36.8-133.2,0c-36.8,36.8-36.8,96.5,0,133.3L366.8,500L37.6,829.1c-36.8,36.8-36.8,96.5,0,133.2C56,980.8,80.1,990,104.2,990c24.1,0,48.2-9.2,66.6-27.6L500,633.3l329.1,329.1c18.4,18.4,42.5,27.6,66.6,27.6c24.1,0,48.2-9.2,66.6-27.6c36.8-36.8,36.8-96.5,0-133.2L633.2,500z"/></g>
</svg>
