<svg 
 xmlns="http://www.w3.org/2000/svg"
 xmlns:xlink="http://www.w3.org/1999/xlink"
 width="26px" height="21px">
<path fill-rule="evenodd"  fill="rgb(182, 189, 202)"
 d="M8.000,12.000 L8.000,9.000 L26.000,9.000 L26.000,12.000 L8.000,12.000 ZM8.000,1.000 L26.000,1.000 L26.000,4.000 L8.000,4.000 L8.000,1.000 ZM-0.000,8.000 L5.000,8.000 L5.000,13.000 L-0.000,13.000 L-0.000,8.000 ZM-0.000,-0.000 L5.000,-0.000 L5.000,5.000 L-0.000,5.000 L-0.000,-0.000 ZM5.000,21.000 L-0.000,21.000 L-0.000,16.000 L5.000,16.000 L5.000,21.000 ZM16.955,20.000 L8.000,20.000 L8.000,17.000 L17.000,17.000 L16.955,20.000 Z"/>
</svg>