<svg 
 xmlns="http://www.w3.org/2000/svg"
 xmlns:xlink="http://www.w3.org/1999/xlink"
 width="20px" height="20px">
<path fill-rule="evenodd"  fill="rgb(183, 192, 205)"
 d="M0.068,17.755 C0.068,18.860 1.025,19.995 2.128,19.995 L18.094,19.995 C19.197,19.995 19.995,18.974 19.995,17.755 C19.995,17.366 19.963,5.351 19.963,4.700 C19.963,2.617 19.682,1.991 15.971,1.991 L15.971,-0.010 L13.976,-0.010 L13.976,1.991 L5.992,1.991 L5.992,-0.010 L3.997,-0.010 L3.997,1.991 L2.001,1.991 C0.903,1.991 0.005,2.891 0.005,3.991 L0.068,17.755 ZM17.967,16.995 C17.967,17.545 17.518,17.995 16.969,17.995 L2.999,17.995 C2.447,17.995 2.001,17.547 2.001,16.995 L2.001,9.993 L17.967,9.993 L17.967,16.995 ZM17.967,7.992 L2.001,7.992 L2.001,4.963 C2.001,4.426 2.435,3.991 2.970,3.991 L3.997,3.991 L3.997,5.992 L5.992,5.992 L5.992,3.991 L13.976,3.991 L13.976,5.992 L15.971,5.992 L15.971,3.991 L16.969,3.991 C17.520,3.991 17.967,4.439 17.967,4.992 L17.967,7.992 Z"/>
</svg>