<svg 
 xmlns="http://www.w3.org/2000/svg"
 xmlns:xlink="http://www.w3.org/1999/xlink"
 width="21px" height="21px">
<path fill-rule="evenodd"  fill="rgb(183, 192, 205)"
 d="M10.000,8.999 L10.000,1.999 C4.503,1.999 -0.107,7.308 1.000,13.000 C1.674,16.466 4.531,19.326 8.000,20.000 C13.954,21.156 19.000,15.817 19.000,11.000 L12.000,11.000 C10.772,11.000 10.000,10.227 10.000,8.999 ZM9.000,17.999 C6.389,17.597 3.692,15.716 3.000,13.000 C1.908,8.708 6.097,4.669 8.000,4.999 L8.000,8.999 C8.000,11.450 9.547,13.000 12.000,13.000 L16.000,13.000 C16.268,14.894 12.634,18.560 9.000,17.999 ZM14.000,8.999 L21.000,8.999 C21.000,4.090 16.913,-0.001 12.000,-0.001 L12.000,7.000 C12.000,9.076 12.772,8.999 14.000,8.999 ZM14.000,1.999 C15.893,2.670 18.329,5.108 19.000,7.000 L14.000,7.000 L14.000,1.999 Z"/>
</svg>