<svg 
 xmlns="http://www.w3.org/2000/svg"
 xmlns:xlink="http://www.w3.org/1999/xlink"
 width="31px" height="29px">
<path fill-rule="evenodd"  fill="rgb(183, 192, 205)"
 d="M28.000,24.000 L19.000,24.000 L20.841,27.022 C21.068,27.451 21.068,27.945 20.841,28.340 C20.613,28.736 20.456,29.000 20.000,29.000 L11.000,29.000 C10.544,29.000 10.648,28.736 10.420,28.340 C10.192,27.945 10.192,27.451 10.420,27.022 L12.000,24.000 L3.000,24.000 C1.209,24.000 -0.000,22.812 -0.000,21.000 L-0.000,3.000 C-0.000,1.187 1.209,-0.000 3.000,-0.000 L28.000,-0.000 C29.791,-0.000 31.000,1.187 31.000,3.000 L31.000,20.000 C31.000,21.812 29.791,24.000 28.000,24.000 ZM19.000,27.000 L17.000,24.000 L14.000,24.000 L12.000,27.000 L19.000,27.000 ZM29.000,4.000 C29.000,2.912 28.074,2.000 27.000,2.000 L4.000,2.000 C2.925,2.000 2.000,2.912 2.000,4.000 L2.000,17.000 L29.000,17.000 L29.000,4.000 ZM29.000,19.000 L2.000,19.000 L2.000,20.000 C2.000,21.087 2.925,22.000 4.000,22.000 L14.000,22.000 L18.000,22.000 L27.000,22.000 C28.074,22.000 29.000,21.087 29.000,20.000 L29.000,19.000 ZM16.047,21.323 L15.202,21.323 C14.844,21.323 14.358,20.833 14.358,20.470 C14.358,20.108 14.844,19.617 15.202,19.617 L16.047,19.617 C16.405,19.617 16.891,20.108 16.891,20.470 C16.891,20.833 16.405,21.323 16.047,21.323 Z"/>
</svg>