<svg 
 xmlns="http://www.w3.org/2000/svg"
 xmlns:xlink="http://www.w3.org/1999/xlink"
 width="20px" height="20px">
<path fill-rule="evenodd"  fill="rgb(183, 192, 205)"
 d="M0.009,12.001 L9.005,12.001 L9.005,0.003 L0.009,0.003 L0.009,12.001 ZM2.008,2.002 L7.006,2.002 L7.006,10.001 L2.008,10.001 L2.008,2.002 ZM11.004,19.999 L20.000,19.999 L20.000,8.001 L11.004,8.001 L11.004,19.999 ZM13.003,10.001 L18.001,10.001 L18.001,17.999 L13.003,17.999 L13.003,10.001 ZM11.004,0.003 L11.004,6.002 L20.000,6.002 L20.000,0.003 L11.004,0.003 ZM18.001,4.002 L13.003,4.002 L13.003,2.002 L18.001,2.002 L18.001,4.002 ZM0.009,19.999 L9.005,19.999 L9.005,14.000 L0.009,14.000 L0.009,19.999 ZM2.008,16.000 L7.006,16.000 L7.006,17.999 L2.008,17.999 L2.008,16.000 Z"/>
</svg>