<svg 
 xmlns="http://www.w3.org/2000/svg"
 xmlns:xlink="http://www.w3.org/1999/xlink"
 width="18px" height="29px">
<path fill-rule="evenodd" fill="rgb(183, 192, 205)"
 d="M16.000,29.000 L2.000,29.000 C0.736,29.000 -0.000,28.238 -0.000,27.000 L-0.000,2.000 C-0.000,0.756 0.742,-0.000 2.000,-0.000 L16.000,-0.000 C17.264,-0.000 18.000,0.762 18.000,2.000 L18.000,27.000 C18.000,28.244 17.258,28.994 16.000,29.000 ZM16.000,3.000 C16.000,2.555 15.445,2.000 15.000,2.000 L3.000,2.000 C2.554,2.000 2.000,2.555 2.000,3.000 L2.000,4.000 L16.000,4.000 L16.000,3.000 ZM16.000,6.000 L2.000,6.000 L2.000,21.000 L16.000,21.000 L16.000,6.000 ZM16.000,23.000 L2.000,23.000 L2.000,26.000 C2.000,26.444 2.554,27.000 3.000,27.000 L15.000,27.000 C15.451,27.000 16.000,26.438 16.000,26.000 L16.000,23.000 ZM10.193,26.004 L7.790,26.004 C7.402,26.004 6.990,25.470 6.990,24.993 C6.990,24.516 7.402,23.982 7.790,23.982 L10.193,23.982 C10.581,23.982 10.993,24.516 10.993,24.993 C10.993,25.470 10.581,26.004 10.193,26.004 Z"/>
</svg>