<svg 
 xmlns="http://www.w3.org/2000/svg"
 xmlns:xlink="http://www.w3.org/1999/xlink"
 width="13px" height="20px">
<path fill-rule="evenodd"  fill="rgb(183, 192, 205)"
 d="M12.000,20.000 L9.000,20.000 C8.672,20.000 8.000,19.613 8.000,19.000 L8.000,18.000 L5.000,18.000 L5.000,19.000 C5.000,19.482 4.425,20.000 4.000,20.000 L1.000,20.000 C0.615,20.000 -0.000,19.398 -0.000,19.000 L-0.000,1.000 C-0.000,0.602 0.615,-0.000 1.000,-0.000 L4.000,-0.000 C4.609,-0.000 4.931,0.668 5.000,1.000 L5.000,2.000 L8.000,2.000 L8.000,1.000 C8.069,0.668 8.328,-0.000 9.000,-0.000 L12.000,-0.000 C12.385,-0.000 13.000,0.602 13.000,1.000 L13.000,19.000 C13.000,19.398 12.385,20.000 12.000,20.000 ZM11.000,2.000 L10.000,2.000 L10.000,3.000 C9.931,3.332 9.328,4.000 9.000,4.000 L4.000,4.000 C3.672,4.000 3.000,3.613 3.000,3.000 L3.000,2.000 L2.000,2.000 L2.000,18.000 L3.000,18.000 L3.000,17.000 C3.000,16.486 3.700,16.000 4.000,16.000 L9.000,16.000 C9.703,16.000 9.931,16.668 10.000,17.000 L10.000,18.000 L11.000,18.000 L11.000,2.000 ZM9.000,9.000 L4.000,9.000 C3.615,9.000 4.000,8.398 4.000,8.000 C4.000,7.602 3.615,7.000 4.000,7.000 L9.000,7.000 C9.385,7.000 9.000,7.602 9.000,8.000 C9.000,8.398 9.385,9.000 9.000,9.000 ZM4.000,10.000 L9.000,10.000 C9.385,10.000 9.000,10.601 9.000,11.000 C9.000,11.398 9.385,12.000 9.000,12.000 L4.000,12.000 C3.615,12.000 4.000,11.398 4.000,11.000 C4.000,10.602 3.615,10.000 4.000,10.000 Z"/>
</svg>