<svg 
 xmlns="http://www.w3.org/2000/svg"
 xmlns:xlink="http://www.w3.org/1999/xlink"
 width="20px" height="20px">
<path fill-rule="evenodd"  fill="rgb(183, 192, 205)"
 d="M3.996,1.997 L-0.003,1.997 L-0.003,-0.003 C4.962,-0.003 3.770,-0.003 5.996,-0.003 L5.996,3.997 C10.429,3.997 13.218,3.997 17.993,3.997 C17.993,7.238 17.993,3.084 17.993,14.181 C18.993,14.595 20.004,15.693 20.004,16.998 C20.004,18.655 18.667,19.998 17.010,19.998 C15.354,19.998 14.002,18.655 14.002,16.998 C14.002,15.693 14.994,14.595 15.993,14.181 L15.993,13.998 L5.996,13.998 L5.996,14.181 C6.995,14.595 8.007,15.693 8.007,16.998 C8.007,18.655 6.669,19.998 5.013,19.998 C3.356,19.998 2.005,18.655 2.005,16.998 C2.005,15.693 2.996,14.595 3.996,14.181 C3.996,3.862 3.996,5.812 3.996,1.997 ZM17.016,17.998 C17.567,17.998 18.016,17.549 18.016,16.998 C18.016,16.446 17.567,15.998 17.016,15.998 C16.465,15.998 16.016,16.446 16.016,16.998 C16.016,17.549 16.465,17.998 17.016,17.998 ZM15.993,11.998 L15.993,5.997 L5.996,5.997 L5.996,11.998 L15.993,11.998 ZM5.018,17.998 C5.570,17.998 6.018,17.549 6.018,16.998 C6.018,16.446 5.570,15.998 5.018,15.998 C4.467,15.998 4.019,16.446 4.019,16.998 C4.019,17.549 4.467,17.998 5.018,17.998 Z"/>
</svg>