<svg 
 xmlns="http://www.w3.org/2000/svg"
 xmlns:xlink="http://www.w3.org/1999/xlink"
 width="16px" height="14px">
<path fill-rule="evenodd"  fill="rgb(184, 190, 203)"
 d="M15.739,3.561 L13.421,0.654 C13.126,0.196 12.622,-0.007 12.081,-0.007 L3.951,-0.007 C3.401,-0.007 2.890,0.206 2.597,0.677 L0.255,3.769 C-0.124,4.377 -0.058,5.147 0.415,5.683 L6.803,12.458 C7.442,13.183 8.567,13.173 9.200,12.442 L15.603,5.506 C16.074,4.962 16.130,4.167 15.739,3.561 ZM3.716,1.983 C3.862,1.749 4.118,1.606 4.393,1.606 L11.612,1.606 C11.881,1.606 12.132,1.743 12.280,1.970 L14.008,4.027 L2.079,4.027 L3.716,1.983 ZM8.583,10.758 C8.266,11.124 7.704,11.163 7.384,10.800 L2.436,5.641 L13.426,5.641 L8.583,10.758 Z"/>
</svg>