<svg 
 xmlns="http://www.w3.org/2000/svg"
 xmlns:xlink="http://www.w3.org/1999/xlink"
 width="20px" height="20px">
<path fill-rule="evenodd"  fill="rgb(183, 192, 205)"
 d="M14.008,-0.013 C8.744,-0.013 5.003,-0.013 0.015,-0.013 C0.015,6.664 0.015,13.306 0.015,20.010 C6.691,20.010 13.335,20.010 20.006,20.010 C20.006,14.970 20.006,11.384 20.006,6.099 L14.008,-0.013 ZM18.007,18.008 L2.014,18.008 L2.014,1.989 L12.009,1.989 L12.009,7.996 L18.007,7.996 L18.007,18.008 ZM10.010,7.996 L4.013,7.996 L4.013,3.992 L10.010,3.992 L10.010,7.996 ZM4.013,9.999 L16.007,9.999 L16.007,12.001 L4.013,12.001 L4.013,9.999 ZM4.013,14.003 L16.007,14.003 L16.007,16.006 L4.013,16.006 L4.013,14.003 Z"/>
</svg>