<svg 
 xmlns="http://www.w3.org/2000/svg"
 xmlns:xlink="http://www.w3.org/1999/xlink"
 width="17px" height="17px">
<path fill-rule="evenodd"  fill="rgb(185, 191, 204)"
 d="M16.130,6.715 L14.937,6.513 C14.813,6.112 14.653,5.724 14.457,5.355 L15.161,4.371 C15.459,3.952 15.413,3.381 15.047,3.018 L13.989,1.960 C13.790,1.761 13.527,1.651 13.246,1.651 C13.026,1.651 12.817,1.719 12.639,1.847 L11.652,2.550 C11.268,2.347 10.867,2.180 10.451,2.056 L10.253,0.877 C10.167,0.369 9.731,-0.000 9.216,-0.000 L7.721,-0.000 C7.206,-0.000 6.769,0.369 6.683,0.877 L6.477,2.084 C6.080,2.209 5.693,2.372 5.323,2.571 L4.347,1.868 C4.169,1.740 3.956,1.673 3.736,1.673 C3.455,1.673 3.189,1.783 2.994,1.982 L1.932,3.040 C1.570,3.402 1.520,3.974 1.818,4.393 L2.528,5.391 C2.333,5.764 2.177,6.151 2.056,6.552 L0.877,6.751 C0.369,6.836 -0.000,7.273 -0.000,7.788 L-0.000,9.283 C-0.000,9.798 0.369,10.235 0.877,10.320 L2.085,10.526 C2.209,10.924 2.372,11.311 2.571,11.680 L1.871,12.653 C1.573,13.072 1.619,13.644 1.985,14.006 L3.043,15.064 C3.242,15.263 3.505,15.373 3.786,15.373 C4.006,15.373 4.215,15.306 4.393,15.178 L5.391,14.468 C5.750,14.656 6.126,14.809 6.513,14.929 L6.712,16.123 C6.797,16.630 7.234,17.000 7.749,17.000 L9.248,17.000 C9.763,17.000 10.199,16.630 10.285,16.123 L10.487,14.929 C10.888,14.805 11.275,14.645 11.645,14.450 L12.628,15.153 C12.806,15.281 13.019,15.348 13.239,15.348 L13.239,15.348 C13.520,15.348 13.783,15.238 13.981,15.040 L15.040,13.981 C15.402,13.619 15.452,13.047 15.153,12.628 L14.450,11.641 C14.646,11.268 14.809,10.881 14.930,10.483 L16.123,10.284 C16.631,10.199 17.000,9.762 17.000,9.247 L17.000,7.752 C17.007,7.237 16.638,6.801 16.130,6.715 ZM14.885,9.132 C14.885,9.171 14.858,9.204 14.818,9.210 L13.557,9.420 C13.398,9.448 13.272,9.565 13.232,9.718 C13.118,10.159 12.944,10.583 12.710,10.977 C12.629,11.115 12.635,11.286 12.728,11.418 L13.470,12.463 C13.491,12.493 13.488,12.538 13.461,12.565 L12.566,13.461 C12.545,13.482 12.524,13.485 12.509,13.485 C12.491,13.485 12.476,13.479 12.463,13.470 L11.421,12.728 C11.292,12.635 11.118,12.628 10.980,12.710 C10.586,12.944 10.163,13.118 9.721,13.232 C9.565,13.271 9.448,13.400 9.424,13.557 L9.210,14.818 C9.204,14.857 9.171,14.884 9.132,14.884 L7.868,14.884 C7.829,14.884 7.796,14.857 7.790,14.818 L7.579,13.557 C7.552,13.397 7.435,13.271 7.282,13.232 C6.852,13.121 6.438,12.950 6.050,12.728 C5.987,12.692 5.915,12.674 5.846,12.674 C5.765,12.674 5.681,12.697 5.612,12.749 L4.561,13.497 C4.546,13.506 4.531,13.512 4.516,13.512 C4.504,13.512 4.479,13.509 4.458,13.487 L3.563,12.592 C3.536,12.565 3.533,12.523 3.554,12.490 L4.293,11.454 C4.386,11.322 4.392,11.148 4.311,11.010 C4.077,10.619 3.897,10.195 3.783,9.754 C3.741,9.601 3.614,9.484 3.458,9.456 L2.188,9.240 C2.149,9.234 2.122,9.201 2.122,9.162 L2.122,7.898 C2.122,7.859 2.149,7.825 2.188,7.820 L3.440,7.609 C3.599,7.582 3.729,7.465 3.768,7.309 C3.879,6.867 4.050,6.441 4.281,6.047 C4.362,5.909 4.353,5.738 4.260,5.609 L3.512,4.557 C3.491,4.528 3.494,4.482 3.521,4.455 L4.416,3.560 C4.437,3.539 4.458,3.536 4.474,3.536 C4.491,3.536 4.506,3.542 4.518,3.551 L5.555,4.290 C5.687,4.383 5.861,4.389 5.999,4.308 C6.390,4.074 6.813,3.894 7.255,3.780 C7.408,3.738 7.525,3.611 7.552,3.455 L7.769,2.185 C7.775,2.146 7.808,2.119 7.847,2.119 L9.111,2.119 C9.150,2.119 9.183,2.146 9.189,2.185 L9.400,3.437 C9.427,3.596 9.544,3.725 9.700,3.764 C10.154,3.879 10.586,4.056 10.989,4.293 C11.127,4.374 11.298,4.368 11.430,4.275 L12.467,3.530 C12.482,3.521 12.497,3.515 12.512,3.515 C12.524,3.515 12.548,3.518 12.569,3.539 L13.464,4.434 C13.491,4.461 13.494,4.503 13.473,4.536 L12.731,5.579 C12.638,5.708 12.632,5.882 12.713,6.020 C12.947,6.414 13.121,6.837 13.235,7.279 C13.274,7.435 13.404,7.552 13.560,7.576 L14.821,7.789 C14.861,7.795 14.888,7.828 14.888,7.868 L14.888,9.132 L14.885,9.132 Z"/>
</svg>