<svg 
 xmlns="http://www.w3.org/2000/svg"
 xmlns:xlink="http://www.w3.org/1999/xlink"
 width="20px" height="25px">
<path fill-rule="evenodd"  fill="rgb(183, 189, 203)"
 d="M17.496,14.992 L17.496,9.993 C17.496,5.552 14.539,3.088 11.253,2.592 L11.253,-0.006 L8.756,-0.006 L8.756,2.592 C5.470,3.088 2.514,5.552 2.514,9.993 L2.514,14.992 C2.514,16.372 1.396,17.492 0.017,17.492 L0.017,19.991 L6.259,19.991 L6.259,21.241 C6.259,23.311 7.936,24.990 10.005,24.990 C12.073,24.990 13.750,23.311 13.750,21.241 L13.750,19.991 L19.993,19.991 L19.993,17.492 C18.613,17.492 17.496,16.372 17.496,14.992 ZM11.253,21.241 C11.253,21.931 10.694,22.491 10.005,22.491 C9.315,22.491 8.756,21.931 8.756,21.241 L8.756,19.991 L11.253,19.991 L11.253,21.241 ZM14.999,17.492 L5.011,17.492 L5.011,9.993 C5.011,6.660 7.507,4.994 10.004,4.994 L10.006,4.994 C12.502,4.994 14.999,6.660 14.999,9.993 L14.999,17.492 Z"/>
</svg>