<svg 
 xmlns="http://www.w3.org/2000/svg"
 xmlns:xlink="http://www.w3.org/1999/xlink"
 width="20px" height="20px">
<path fill-rule="evenodd"  fill="rgb(183, 192, 205)"
 d="M20.002,16.007 C16.821,16.007 7.467,16.007 4.010,16.007 C4.010,12.797 4.010,3.457 4.010,-0.012 C8.456,-0.012 15.562,-0.012 20.005,-0.012 C20.005,-0.012 20.002,12.432 20.002,16.007 ZM6.009,1.990 L6.009,14.004 L18.003,14.004 L18.006,1.990 L6.009,1.990 ZM8.000,7.000 L16.000,7.000 L16.000,9.000 L8.000,9.000 L8.000,7.000 ZM8.000,4.000 L16.000,4.000 L16.000,6.000 L8.000,6.000 L8.000,4.000 ZM14.000,12.000 L8.000,12.000 L8.000,10.000 L14.000,10.000 L14.000,12.000 ZM16.004,20.011 C10.249,20.011 7.853,20.011 0.012,20.011 C0.012,13.341 0.012,10.584 0.012,3.993 L2.011,3.993 L2.011,18.009 L16.004,18.009 L16.004,20.011 Z"/>
</svg>