<svg 
 xmlns="http://www.w3.org/2000/svg"
 xmlns:xlink="http://www.w3.org/1999/xlink"
 width="22px" height="22px">
<path fill-rule="evenodd"  fill="rgb(183, 189, 203)"
 d="M8.806,0.012 C3.948,0.012 0.010,3.952 0.010,8.811 C0.010,13.670 3.948,17.609 8.806,17.609 C13.664,17.609 17.602,13.670 17.602,8.811 C17.602,3.952 13.664,0.012 8.806,0.012 ZM8.806,15.410 C5.169,15.410 2.209,12.449 2.209,8.811 C2.209,5.172 5.169,2.212 8.806,2.212 C12.444,2.212 15.403,5.172 15.403,8.811 C15.403,12.449 12.444,15.410 8.806,15.410 ZM22.000,20.453 L20.445,22.008 L15.781,17.342 L17.336,15.787 L22.000,20.453 Z"/>
</svg>