<svg 
 xmlns="http://www.w3.org/2000/svg"
 xmlns:xlink="http://www.w3.org/1999/xlink"
 width="25px" height="29px">
<path fill-rule="evenodd"  fill="rgb(183, 192, 205)"
 d="M22.000,29.000 L3.000,29.000 C1.324,29.000 -0.000,27.735 -0.000,26.000 L-0.000,3.000 C-0.000,1.265 1.324,-0.000 3.000,-0.000 L22.000,-0.000 C23.676,-0.000 25.000,1.265 25.000,3.000 L25.000,26.000 C25.000,27.735 23.676,29.000 22.000,29.000 ZM23.000,4.000 C23.000,2.932 22.031,2.000 21.000,2.000 L4.000,2.000 C2.969,2.000 2.000,2.932 2.000,4.000 L2.000,25.000 C2.000,26.067 2.969,27.000 4.000,27.000 L21.000,27.000 C22.031,27.000 23.000,26.067 23.000,25.000 L23.000,4.000 ZM20.000,23.000 L5.000,23.000 C4.708,23.000 4.000,22.306 4.000,22.000 L4.000,5.000 C4.000,4.694 4.708,4.000 5.000,4.000 L20.000,4.000 C20.292,4.000 21.000,4.694 21.000,5.000 L21.000,22.000 C21.000,22.306 20.292,23.000 20.000,23.000 ZM19.000,6.000 L6.000,6.000 L6.000,21.000 L19.000,21.000 L19.000,6.000 ZM16.882,10.505 C17.063,10.709 17.069,11.027 16.894,11.238 C16.708,11.463 16.385,11.485 16.173,11.287 C14.063,9.116 10.667,9.074 8.604,11.192 C8.401,11.401 8.077,11.395 7.881,11.179 C7.684,10.963 7.689,10.618 7.892,10.409 C10.348,7.890 14.378,7.932 16.882,10.505 ZM15.361,13.160 C15.367,13.167 15.374,13.174 15.380,13.181 C15.578,13.395 15.575,13.739 15.374,13.949 C15.172,14.160 14.849,14.157 14.651,13.942 C13.374,12.630 11.295,12.630 10.018,13.942 C10.011,13.949 10.005,13.956 9.998,13.963 C9.790,14.165 9.467,14.150 9.276,13.929 C9.086,13.707 9.100,13.363 9.308,13.160 C10.977,11.445 13.692,11.445 15.361,13.160 ZM12.334,14.576 C12.876,14.576 13.378,14.839 13.750,15.316 C13.930,15.548 13.899,15.891 13.682,16.082 C13.464,16.273 13.142,16.241 12.962,16.009 C12.614,15.563 12.054,15.563 11.706,16.009 C11.526,16.241 11.204,16.273 10.986,16.082 C10.769,15.891 10.739,15.548 10.919,15.316 C11.290,14.839 11.793,14.576 12.334,14.576 ZM11.992,24.009 C12.543,24.009 12.989,24.456 12.989,25.007 C12.989,25.558 12.543,26.004 11.992,26.004 C11.442,26.004 10.996,25.558 10.996,25.007 C10.996,24.456 11.442,24.009 11.992,24.009 Z"/>
</svg>