<svg 
 xmlns="http://www.w3.org/2000/svg"
 xmlns:xlink="http://www.w3.org/1999/xlink"
 width="14px" height="14px">
<path fill-rule="evenodd"  fill="rgb(183, 189, 203)"
 d="M13.984,12.338 C13.463,9.988 11.836,8.253 9.694,7.466 C10.829,6.572 11.491,5.127 11.248,3.545 C10.966,1.710 9.404,0.242 7.519,0.027 C4.918,-0.268 2.711,1.712 2.711,4.196 C2.711,5.519 3.337,6.697 4.315,7.466 C2.172,8.253 0.546,9.988 0.025,12.338 C-0.165,13.192 0.539,13.992 1.434,13.992 L12.575,13.992 C13.469,13.992 14.173,13.192 13.984,12.338 ZM4.142,4.196 C4.142,2.653 5.426,1.398 7.004,1.398 C8.583,1.398 9.867,2.653 9.867,4.196 C9.867,5.740 8.583,6.995 7.004,6.995 C5.426,6.995 4.142,5.740 4.142,4.196 ZM11.605,12.592 L2.404,12.592 C1.909,12.592 1.543,12.105 1.730,11.656 C2.597,9.582 4.632,8.394 7.004,8.394 C9.377,8.394 11.412,9.582 12.279,11.656 C12.466,12.105 12.100,12.592 11.605,12.592 Z"/>
</svg>